# xmcd
#
# Track frame offsets:
#	150
#	14655
#	29305
#	45080
#	60917
#	77137
#	95105
#	108205
#	123580
#	138805
#	158030
#	172717
#	190305
#	202492
#	219250
#	232067
#	243317
#
# Disc length: 3466 seconds
# Revision: 0
# Processed by: cddbd v1.5.2PL0 Copyright (c) Steve Scherf et al.
# Submitted via: dBpowerAMP V12.0
#
DISCID=df0d8811
DTITLE=The Judds - The Judds Collection: 1983-1990
DYEAR=1995
DGENRE=Country
TTITLE0=Had A Dream (For The Heart)
TTITLE1=Mama He's Crazy
TTITLE2=Drops Of Water
TTITLE3=Why Not Me
TTITLE4=Change Of Heart
TTITLE5=Love Is Alive
TTITLE6=Girls Night Out
TTITLE7=Mr. Pain
TTITLE8=Have Mercy
TTITLE9=Grandpa (Tell Me About The Good Old Days)
TTITLE10=Lazy Country Evening
TTITLE11=Tears For You
TTITLE12=Rockin' With The Rhythm Of The Rain
TTITLE13=Cry Myself To Sleep
TTITLE14=If I Were You
TTITLE15=Don't Be Cruel
TTITLE16=Dream Chaser
EXTD=
EXTT0=
EXTT1=
EXTT2=
EXTT3=
EXTT4=
EXTT5=
EXTT6=
EXTT7=
EXTT8=
EXTT9=
EXTT10=
EXTT11=
EXTT12=
EXTT13=
EXTT14=
EXTT15=
EXTT16=
PLAYORDER=
